# xmcd
#
# Track frame offsets: 
#        150
#        27995
#        58530
#        86707
#        113292
#        139675
#        166117
#        190505
#        215262
#        242787
#        267285
#        296245
#
# Disc length: 4287 seconds
#
# Revision: 1
# Processed by: cddbd v1.5.2PL0 Copyright (c) Steve Scherf et al.
# Submitted via: ExactAudioCopy v0.99pb3
#
DISCID=a110bd0c
DTITLE=Various Artist - Super Eurobeat 23
DYEAR=1992
DGENRE=Eurobeat
TTITLE0=Sandy Bee - The Colour Of My Love (Extended Mix)
TTITLE1=Mike Hammer - Heart Breaker (Extended Mix)
TTITLE2=Annerley Gordon - Take Your Time (Club Mix)
TTITLE3=Dr. Money - Celebrate (Extended Mix)
TTITLE4=Fellini - The Way To Heaven (Extended Mix)
TTITLE5=Brian Ice - Heart Beat (Extended Version)
TTITLE6=Le Belle Fiches - Rumours (Extended Version)
TTITLE7=Patty Sun - Bang Bang Shooting (Bang Bang Mix)
TTITLE8=Big Generation - Fight For Your Rights (Extended Mix)
TTITLE9=Jilly - Take A Look In My Heart (Extended Mix)
TTITLE10=Queen Of Times - Holiday (Dance Mix)
TTITLE11=King and Queen - Turbo Lover (Power Extended Mix)
EXTD=
EXTT0=
EXTT1=
EXTT2=
EXTT3=
EXTT4=
EXTT5=
EXTT6=
EXTT7=
EXTT8=
EXTT9=
EXTT10=
EXTT11=
PLAYORDER=
